<?xml version="1.0" encoding="UTF-8"?>
<svg id="Capa_1" data-name="Capa 1" xmlns="http://www.w3.org/2000/svg" viewBox="0 0 141.73 141.73">
  <defs>
    <style>
      .cls-1 {
        fill: #098136;
        stroke-width: 0px;
      }
    </style>
  </defs>
  <path class="cls-1" d="M129.76,11.97c-7.72-7.72-17.98-11.97-28.89-11.97h-60.01c-10.91,0-21.18,4.25-28.89,11.97C4.25,19.68,0,29.95,0,40.86v60.01c0,10.91,4.25,21.18,11.97,28.89,7.72,7.72,17.98,11.97,28.89,11.97h60.01c10.91,0,21.18-4.25,28.89-11.97,7.72-7.72,11.97-17.98,11.97-28.89v-60.01c0-10.91-4.25-21.18-11.97-28.89ZM130.37,100.87c0,16.29-13.21,29.5-29.5,29.5h-60.01c-16.29,0-29.5-13.21-29.5-29.5v-60.01c0-16.29,13.21-29.5,29.5-29.5h60.01c16.29,0,29.5,13.21,29.5,29.5v60.01Z"/>
  <path class="cls-1" d="M97.65,44.08c-7.15-7.15-16.67-11.09-26.79-11.09s-19.63,3.94-26.79,11.09c-7.15,7.15-11.09,16.67-11.09,26.79s3.94,19.63,11.09,26.79c7.15,7.15,16.67,11.09,26.79,11.09s19.63-3.94,26.79-11.09c7.15-7.15,11.09-16.67,11.09-26.79s-3.94-19.63-11.09-26.79ZM70.87,98.01c-14.99,0-27.15-12.15-27.15-27.15s12.15-27.15,27.15-27.15,27.15,12.15,27.15,27.15-12.15,27.15-27.15,27.15Z"/>
  <path class="cls-1" d="M115.37,32.32c0,1.53-.6,2.97-1.68,4.05-1.08,1.08-2.52,1.68-4.05,1.68s-2.97-.6-4.05-1.68c-1.08-1.08-1.68-2.52-1.68-4.05s.6-2.97,1.68-4.05c1.08-1.08,2.52-1.68,4.05-1.68s2.97.6,4.05,1.68c1.08,1.08,1.68,2.52,1.68,4.05Z"/>
</svg>