<?xml version="1.0" encoding="UTF-8"?>
<svg id="Capa_1" data-name="Capa 1" xmlns="http://www.w3.org/2000/svg" viewBox="0 0 141.73 137.99">
  <defs>
    <style>
      .cls-1 {
        fill: #098136;
        stroke-width: 0px;
      }
    </style>
  </defs>
  <path class="cls-1" d="M136.16,110.41c-3.57-8.44-8.68-16.02-15.18-22.52-6.5-6.51-14.08-11.62-22.52-15.18-2.47-1.04-4.98-1.95-7.54-2.7,10.67-6.71,17.77-18.59,17.77-32.1C108.69,17,91.68,0,70.78,0s-37.9,17-37.9,37.9c0,13.53,7.13,25.43,17.82,32.13-2.51.75-4.99,1.63-7.43,2.67-8.44,3.57-16.02,8.68-22.52,15.18-6.5,6.5-11.61,14.08-15.18,22.52-3.7,8.74-5.57,18.02-5.57,27.59h8.77c0-34.29,27.8-62.09,62.09-62.09s62.09,27.8,62.09,62.09h8.77c0-9.56-1.87-18.84-5.57-27.59ZM41.66,37.9c0-16.09,13.04-29.13,29.13-29.13s29.13,13.04,29.13,29.13-13.04,29.13-29.13,29.13-29.13-13.04-29.13-29.13Z"/>
</svg>