<?xml version="1.0" encoding="UTF-8"?>
<svg id="Capa_1" data-name="Capa 1" xmlns="http://www.w3.org/2000/svg" viewBox="0 0 141.73 141.73">
  <defs>
    <style>
      .cls-1 {
        fill: #098136;
        stroke-width: 0px;
      }
    </style>
  </defs>
  <path class="cls-1" d="M70.94,0c38.97.16,70.64,31.5,70.79,70.46.16,39.71-31.8,71.57-71.45,71.27C31.21,141.43-.17,109.5,0,70.18.16,31.76,32.27-.05,70.94,0ZM90.58,56.92c.67-.07,1.04.43,1.49.71,4.01,2.49,8.33,4.15,12.97,5.01,1.36.25,2.01.04,1.97-1.61-.12-5.04-.1-10.08-.07-15.13,0-.96-.23-1.34-1.21-1.37-1.81-.05-3.61-.37-5.3-1.01-6.76-2.54-11.43-7.16-13.43-14.17-.51-1.79-1.29-2.35-3.07-2.22-2.11.16-4.23.04-6.35.04q-2.53,0-2.53,2.55c0,19.11,0,38.23,0,57.34,0,5.77-3.65,10.4-9.38,11.96-5.09,1.39-11.38-1.21-13.99-5.9-2.53-4.56-2.35-9.17.64-13.38,3.01-4.23,7.25-6.15,12.51-5.17,1.34.25,1.7-.03,1.67-1.41-.09-3.98-.08-7.97,0-11.95.03-1.29-.41-1.75-1.64-1.84-3.51-.26-6.94,0-10.33,1.02-11.99,3.6-20.27,15.53-19.66,27.75.71,14.2,11.41,24.15,23.12,26.06,17.41,2.85,32.39-10.01,32.41-27.68.01-9.21,0-18.43.01-27.64,0-.65-.19-1.35.18-1.97Z"/>
</svg>